# xmcd
#
# Track frame offsets:
#	150
#	14863
#	30500
#	47745
#	65685
#	86207
#	103176
#	119916
#	134815
#	150894
#	170657
#	191810
#	209452
#	228787
#
# Disc length: 3260 seconds
#
# Revision: 14
# Processed by: cddbd v1.5.2PL0 Copyright (c) Steve Scherf et al.
# Submitted via: EasyCDDAExtractor 15.3.0.1
#
DISCID=d20cba0e
DTITLE=P!nk - I'm Not Dead
DYEAR=2006
DGENRE=Pop/Rock
TTITLE0=Stupid Girls
TTITLE1=Who Knew
TTITLE2=Long Way To Happy
TTITLE3=Nobody Knows
TTITLE4=Dear Mr. President (Featuring Indigo Girls)
TTITLE5=I'm Not Dead
TTITLE6=Cuz I Can
TTITLE7=Leave Me Alone (I'm Lonely)
TTITLE8=U and Ur Hand
TTITLE9=Runaway
TTITLE10=The One That Got Away
TTITLE11=I Got Money Now
TTITLE12=Conversations With My 13 Year Old Self
TTITLE13=I Have Seen The Rain
EXTD=
EXTT0=
EXTT1=
EXTT2=
EXTT3=
EXTT4=
EXTT5=
EXTT6=
EXTT7=
EXTT8=
EXTT9=
EXTT10=
EXTT11=
EXTT12=
EXTT13=
PLAYORDER=
